<?xml version="1.0" standalone="no"?>
<!DOCTYPE svg PUBLIC "-//W3C//DTD SVG 20010904//EN"
 "http://www.w3.org/TR/2001/REC-SVG-20010904/DTD/svg10.dtd">
<svg version="1.0" xmlns="http://www.w3.org/2000/svg"
 width="807.000000pt" height="807.000000pt" viewBox="0 0 807.000000 807.000000"
 preserveAspectRatio="xMidYMid meet">
<metadata>
Created by potrace 1.11, written by Peter Selinger 2001-2013
</metadata>
<g transform="translate(0.000000,807.000000) scale(0.100000,-0.100000)"
fill="#000000" stroke="none">
<path d="M3799 8026 c-3 -3 -41 -8 -85 -11 -43 -4 -92 -8 -109 -10 -109 -11
-146 -16 -195 -25 -30 -6 -66 -12 -80 -14 -97 -15 -143 -23 -147 -26 -3 -3 -7
-4 -53 -13 -173 -35 -482 -133 -638 -203 -29 -13 -55 -24 -58 -24 -8 0 -288
-133 -294 -140 -3 -3 -30 -18 -60 -34 -30 -16 -62 -35 -70 -42 -8 -7 -19 -12
-24 -12 -4 1 -15 -4 -25 -10 -55 -39 -143 -92 -151 -92 -4 0 -10 -4 -12 -8 -1
-5 -37 -32 -79 -60 -42 -28 -83 -58 -92 -66 -9 -9 -19 -16 -24 -16 -5 0 -16
-8 -24 -17 -9 -10 -29 -27 -44 -38 -38 -26 -110 -85 -159 -130 -166 -150 -204
-185 -230 -214 -17 -19 -44 -49 -61 -66 -35 -38 -148 -167 -193 -220 -7 -8
-11 -15 -8 -15 2 0 -13 -19 -35 -42 -21 -23 -39 -45 -39 -49 0 -4 -7 -14 -15
-23 -20 -19 -217 -312 -237 -352 -30 -59 -61 -109 -70 -115 -5 -3 -9 -10 -9
-15 1 -17 -10 -44 -20 -44 -5 0 -9 -4 -9 -9 0 -5 -20 -52 -45 -104 -25 -53
-45 -101 -45 -107 0 -5 -4 -10 -10 -10 -5 0 -10 -9 -10 -20 0 -11 -5 -20 -12
-20 -6 0 -9 -3 -5 -6 3 -3 -4 -27 -15 -52 -35 -82 -134 -363 -142 -407 -1 -5
-10 -35 -19 -65 -19 -67 -20 -69 -57 -245 -16 -77 -32 -161 -35 -186 -3 -25
-7 -54 -9 -65 -9 -48 -22 -166 -33 -309 -8 -112 -12 -385 -5 -385 4 0 7 -38 7
-85 0 -47 3 -85 6 -85 4 0 6 -10 6 -22 -1 -30 13 -186 18 -201 3 -7 7 -30 9
-52 12 -92 22 -150 41 -231 8 -34 16 -73 19 -85 3 -13 12 -51 21 -84 8 -33 17
-68 20 -79 6 -24 54 -176 62 -196 3 -8 7 -17 8 -20 9 -33 79 -219 94 -248 5
-9 13 -28 19 -42 45 -107 179 -369 235 -457 15 -24 27 -47 27 -53 0 -5 5 -10
10 -10 6 0 10 -4 10 -9 0 -14 52 -91 62 -91 4 0 8 -5 8 -10 0 -15 101 -160
111 -160 5 0 9 -6 9 -12 0 -7 14 -29 30 -48 16 -19 33 -39 37 -45 5 -5 39 -47
77 -93 67 -81 89 -105 186 -207 48 -51 201 -194 239 -223 12 -10 38 -32 59
-50 20 -18 80 -65 132 -105 52 -39 97 -75 98 -79 2 -5 10 -8 18 -8 8 0 17 -7
20 -15 4 -8 10 -15 16 -15 5 0 24 -11 42 -25 18 -14 38 -25 44 -25 7 0 12 -3
12 -7 0 -7 137 -93 243 -152 94 -52 350 -178 382 -187 6 -1 44 -17 85 -34 41
-17 122 -47 180 -67 58 -19 112 -37 120 -40 31 -12 82 -26 205 -58 143 -36
226 -53 345 -71 19 -2 46 -7 60 -10 77 -15 220 -30 348 -35 34 -2 62 -6 62
-10 0 -8 313 -4 425 5 44 4 98 9 120 11 22 1 40 4 40 5 0 0 20 3 45 4 61 5
145 16 200 27 25 5 61 11 80 14 19 2 46 7 60 10 14 3 41 8 60 11 19 3 53 10
75 16 46 13 39 11 85 23 19 4 42 9 50 10 8 1 28 7 43 14 16 6 33 11 38 11 17
0 281 90 351 120 38 16 72 30 76 30 22 3 381 176 392 189 6 8 52 28 64 29 5 0
12 4 15 9 3 5 53 38 109 73 149 93 271 175 282 190 3 3 21 17 40 30 37 26 45
32 125 100 167 142 341 309 435 419 25 29 50 58 55 64 103 119 255 319 255
336 0 5 3 11 8 13 14 6 127 185 195 310 42 76 121 231 122 238 0 3 9 19 18 37
9 18 17 39 17 48 0 8 3 15 8 15 4 0 18 30 31 68 13 37 27 72 31 77 7 10 60
160 64 180 1 6 5 15 8 21 20 32 110 391 138 549 5 33 12 69 14 80 2 11 7 52
10 90 4 39 9 77 11 85 19 68 28 609 12 760 -12 116 -16 153 -21 180 -4 24 -11
70 -22 150 -3 19 -7 46 -10 60 -3 14 -7 36 -10 50 -45 223 -116 465 -200 682
-54 138 -210 464 -234 488 -3 3 -12 19 -20 35 -8 17 -53 89 -100 160 -47 72
-87 134 -89 140 -2 5 -10 15 -17 22 -6 7 -22 28 -34 48 -12 19 -25 35 -30 35
-5 0 -11 8 -14 18 -4 10 -14 27 -24 38 -9 11 -39 46 -65 79 -102 127 -418 455
-438 455 -4 0 -27 19 -52 43 -25 23 -60 53 -78 67 -18 14 -49 39 -69 55 -20
17 -62 48 -93 69 -31 22 -57 43 -57 48 0 4 -4 8 -9 8 -5 0 -44 24 -87 53 -101
68 -272 167 -399 233 -122 62 -285 135 -285 127 0 -3 -7 1 -16 8 -14 11 -60
31 -99 43 -5 2 -21 7 -35 13 -75 30 -332 111 -405 128 -130 29 -164 37 -188
40 -15 2 -31 6 -35 9 -5 3 -30 8 -58 11 -71 10 -89 13 -89 15 0 1 -13 3 -30 5
-16 1 -50 5 -75 8 -25 3 -74 9 -110 13 -36 3 -78 8 -95 11 -47 7 -559 16 -566
9z"/>
</g>
</svg>
